<svg width="141" height="137" viewBox="0 0 141 137" fill="none" xmlns="http://www.w3.org/2000/svg">
<circle cx="64" cy="73" r="60" fill="white" stroke="black" stroke-width="8"/>
<circle cx="77" cy="64" r="60" fill="#B47357" stroke="black" stroke-width="8"/>
<path d="M90.2393 87.6792L76.1336 67.1848L74.1248 64.2674L57.7568 40.4861H64.7976L78.0346 59.7186L80.0432 62.636L97.2801 87.6792H90.2393ZM100.191 85.6773L82.4245 59.8664L80.4159 56.9472L67.707 38.4837L66.6537 36.9536H51.0371L54.8457 42.488L71.7436 67.0402L73.7523 69.9562L87.3295 89.6833L88.3829 91.2117H104L100.191 85.6773Z" fill="white"/>
<path d="M74.1253 64.2674L76.1341 67.1848L73.7528 69.9562L55.482 91.2117H50.9766L71.7441 67.0402L74.1253 64.2674Z" fill="white"/>
<path d="M102.12 36.9535L82.4251 59.8662L80.0438 62.6359L78.0352 59.7185L80.4165 56.9471L93.7576 41.4188L97.6145 36.9535H102.12Z" fill="white"/>
</svg>
