<svg width="141" height="137" viewBox="0 0 141 137" fill="none" xmlns="http://www.w3.org/2000/svg">
<circle cx="64" cy="73" r="60" fill="white" stroke="black" stroke-width="8"/>
<circle cx="77" cy="64" r="60" fill="#B47357" stroke="black" stroke-width="8"/>
<path d="M105.874 39.1451C105.645 38.4669 105.371 38.2885 104.943 38.1189C104.008 37.7709 102.424 38.2974 102.424 38.2974C102.424 38.2974 46.3487 58.535 43.1451 60.7747C42.4553 61.2566 42.2242 61.5421 42.1096 61.8723C41.5558 63.4606 43.2811 64.1655 43.2811 64.1655L57.7345 68.8948C57.7345 68.8948 58.2732 68.9751 58.4652 68.8502C61.7532 66.7621 91.5461 47.8808 93.2643 47.2473C93.5354 47.167 93.7363 47.2562 93.683 47.4436C92.995 49.8707 67.1185 72.9548 67.1185 72.9548C67.1185 72.9548 67.0198 73.0797 66.9576 73.2225L66.9238 73.2046L65.5754 87.5976C65.5754 87.5976 65.0101 92.0056 69.4021 87.5976C72.5007 84.4835 75.499 81.8779 76.9994 80.6197C81.9692 84.0641 87.3176 87.8742 89.6261 89.8641C90.7852 90.8635 91.755 91.0241 92.5532 90.9973C94.7443 90.917 95.3559 88.4989 95.3559 88.4989C95.3559 88.4989 105.575 47.2116 105.916 41.6793C105.95 41.1349 105.996 40.7959 105.999 40.4211C106.006 39.9035 105.958 39.386 105.874 39.1451Z" fill="white"/>
</svg>
