<svg width="141" height="137" viewBox="0 0 141 137" fill="none" xmlns="http://www.w3.org/2000/svg">
<circle cx="64" cy="73" r="60" fill="white" stroke="black" stroke-width="8"/>
<circle cx="77" cy="64" r="60" fill="#B47357" stroke="black" stroke-width="8"/>
<path d="M45.6152 63.923L55.4614 59.6153V48.5384L66.5382 54.6922L76.3844 50.3846L55.4614 38.0769L45.6152 43V63.923Z" fill="white"/>
<path d="M109 42.9999L100.384 38.6923L89.3075 44.8461L96.6921 48.5384L45 72.5383V84.8459L53 88.5382L64.6922 83.6152L57.3076 79.3075L109 55.923V42.9999Z" fill="white"/>
<path d="M109 83.6151V63.9229L99.7689 67.6151V78.692L88.0766 73.1536L78.2305 78.692L99.7689 89.1535L109 83.6151Z" fill="white"/>
<path d="M77.6152 89.7691L72.0767 87.3076L61.6152 92.2307L77.6152 100.846L93.6151 92.2307L84.3844 87.3076L77.6152 89.7691Z" fill="white"/>
<path d="M77.6152 27L61.6152 35L71.4614 41.1538L77.6152 38.0769L82.5382 41.1538L93.6151 36.2307L77.6152 27Z" fill="white"/>
</svg>
